<svg width="239" height="307" viewBox="0 0 239 307" fill="none" xmlns="http://www.w3.org/2000/svg">
<path d="M212.073 231.73L211.227 231.412C198.879 227.158 194.7 223.054 189.207 220.384C169.712 210.837 164.642 203.961 163.344 200.719C163.293 200.598 163.264 200.476 163.22 200.354L163.059 171.264L116.829 170.589L70.5937 171.264L70.4331 200.354C70.393 200.476 70.3566 200.598 70.309 200.719C69.0107 203.961 63.9416 210.837 44.4457 220.384C38.9532 223.054 34.7743 227.158 22.4294 231.412L21.5835 231.73C10.3478 236.509 2.78407 249.887 2.78407 264.999V307H116.829H230.87V264.999C230.869 249.887 223.305 236.509 212.073 231.73Z" fill="#5D9CEC"/>
<path d="M175.656 212.786C174.146 211.793 172.804 210.846 171.622 209.937C171.228 209.638 170.849 209.338 170.499 209.057C170.492 209.047 170.492 209.047 170.492 209.047C170.324 208.907 170.149 208.777 169.988 208.636C169.974 208.626 169.959 208.617 169.944 208.607C169.623 208.336 169.31 208.064 169.011 207.802C168.996 207.783 168.974 207.764 168.952 207.745C168.828 207.632 168.705 207.52 168.588 207.417C168.559 207.389 168.53 207.37 168.515 207.352C168.238 207.099 167.975 206.865 167.735 206.621C167.706 206.602 167.676 206.564 167.647 206.546C167.552 206.452 167.464 206.359 167.369 206.265C167.341 206.246 167.311 206.208 167.282 206.171C167.173 206.058 167.056 205.946 166.954 205.834C166.837 205.965 166.779 205.909 166.779 205.666C164.795 203.567 163.817 201.899 163.343 200.719C163.292 200.597 163.263 200.475 163.219 200.354L163.058 171.263L116.828 170.589L70.5928 171.263L70.4322 200.354C70.392 200.475 70.3556 200.597 70.308 200.719C69.4509 202.855 66.9493 206.584 59.7394 211.614C61.8069 214.79 66.074 220.627 72.6855 226.408C81.3981 234.016 96.1274 243.093 116.827 243.093C137.443 243.093 152.891 234.09 162.212 226.539C168.676 221.302 173.169 216.046 175.656 212.786Z" fill="#DBAFA5"/>
<path d="M180.98 114.984C180.98 168.528 141.236 217.798 116.828 217.798C92.4125 217.798 52.6728 168.528 52.6728 114.984C52.6728 61.441 81.3953 26.1157 116.828 26.1157C152.257 26.1157 180.98 61.441 180.98 114.984Z" fill="#EAC6BB"/>
<path d="M175.656 212.786C171.608 210.124 168.836 207.802 166.954 205.835C164.656 208.589 161.177 212.308 156.568 216.009C144.694 225.49 131.324 230.315 116.828 230.315C102.416 230.315 89.5752 225.546 78.6602 216.177C73.4053 211.652 69.8823 207.081 68.0188 204.373C66.3999 206.34 63.8249 208.757 59.7408 211.614C61.8083 214.79 66.0754 220.627 72.6869 226.408C81.3995 234.016 96.1288 243.093 116.829 243.093C137.444 243.093 152.892 234.09 162.214 226.539C168.676 221.302 173.169 216.046 175.656 212.786Z" fill="#4A89DC"/>
<path d="M121.803 6.38965C121.803 9.91667 119.574 12.7793 116.829 12.7793C114.079 12.7793 111.854 9.91727 111.854 6.38965C111.854 2.85723 114.079 9.43432e-08 116.829 9.43432e-08C119.574 -0.000599535 121.803 2.85723 121.803 6.38965Z" fill="#ED5564"/>
<path d="M116.825 6.38965C80.8888 6.38965 50.6272 44.4601 50.6272 91.4219L50.6235 115.022H183.023L183.03 91.4219C183.03 44.4601 152.761 6.38965 116.825 6.38965Z" fill="#E6E9ED"/>
<path d="M188.748 109.377C188.748 109.377 175.218 76.68 116.829 76.68C58.4388 76.68 44.905 109.377 44.905 109.377C43.6213 112.478 44.8065 115.017 47.5453 115.017H186.108C188.85 115.017 190.031 112.478 188.748 109.377Z" fill="#ED5564"/>
<path d="M188.076 108.023C187.566 108.408 186.91 108.628 186.107 108.628H47.5453C46.7466 108.628 46.0828 108.408 45.5726 108.023C45.1095 108.885 44.905 109.377 44.905 109.377C43.6213 112.478 44.8065 115.017 47.5453 115.017H186.108C188.85 115.017 190.031 112.478 188.748 109.377C188.748 109.377 188.543 108.885 188.076 108.023Z" fill="#DA4453"/>
<path d="M116.825 25.558C108.583 25.558 101.902 34.1399 101.902 44.7269C101.902 55.3134 108.583 63.9001 116.825 63.9001C125.07 63.9001 131.755 55.3134 131.755 44.7269C131.755 34.1399 125.07 25.558 116.825 25.558ZM116.825 51.116C114.082 51.116 111.851 48.254 111.851 44.7269C111.851 41.2041 114.082 38.3373 116.825 38.3373C119.571 38.3373 121.803 41.2041 121.803 44.7269C121.803 48.254 119.571 51.116 116.825 51.116Z" fill="#ED5564"/>
<path d="M196.421 204.486C174.481 204.486 156.626 227.42 156.626 255.602C156.626 283.793 174.481 306.719 196.421 306.719C218.367 306.719 236.215 283.793 236.215 255.602C236.215 227.42 218.367 204.486 196.421 204.486Z" fill="#ED5564"/>
<path d="M156.729 259.387C158.246 285.807 175.466 306.719 196.421 306.719C217.776 306.719 235.26 285.001 236.179 257.851L156.729 259.387Z" fill="#E6E9ED"/>
<path d="M235.72 263.716C236.048 261.074 236.215 258.366 236.215 255.602C236.215 253.916 236.157 252.239 236.026 250.58C229.462 252.37 214.99 255.602 196.421 255.602C179.412 255.602 164.751 252.782 156.816 250.618C156.692 252.248 156.626 253.916 156.626 255.602C156.626 258.366 156.801 261.074 157.13 263.716C164.912 265.674 178.887 268.381 196.421 268.381C213.97 268.381 227.93 265.674 235.72 263.716Z" fill="#434A54"/>
<path d="M206.37 261.992C206.37 269.056 201.921 274.771 196.421 274.771C190.929 274.771 186.472 269.056 186.472 261.992C186.472 254.937 190.929 249.213 196.421 249.213C201.921 249.212 206.37 254.937 206.37 261.992Z" fill="#E6E9ED"/>
<path d="M196.421 281.16C188.193 281.16 181.498 272.56 181.498 261.991C181.498 251.423 188.193 242.823 196.421 242.823C204.648 242.823 211.344 251.423 211.344 261.991C211.344 272.56 204.648 281.16 196.421 281.16ZM196.421 255.602C193.678 255.602 191.446 258.468 191.446 261.991C191.446 265.514 193.678 268.381 196.421 268.381C199.163 268.381 201.395 265.514 201.395 261.991C201.395 258.468 199.163 255.602 196.421 255.602Z" fill="#434A54"/>
<path opacity="0.2" d="M196.421 204.486C195.589 204.486 194.758 204.523 193.941 204.579C214.728 206.247 231.241 228.488 231.241 255.602C231.241 282.715 214.728 304.967 193.941 306.625C194.758 306.682 195.589 306.719 196.421 306.719C218.367 306.719 236.215 283.793 236.215 255.602C236.215 227.42 218.367 204.486 196.421 204.486Z" fill="white"/>
</svg>
